# xmcd CD database file
#
# Track frame offsets:
#	150
#	22381
#	35785
#	50391
#	62013
#	80323
#	95074
#	110652
#	122916
#	137923
#	151016
#	164848
#	175359
#	188852
#	207462
#	228932
#
# Disc length: 3309 seconds
#
# Revision: 0
# Processed by: cddbd v1.5.2PL0 Copyright (c) Steve Scherf et al.
# Submitted via: CDex 1.70beta2
#
DISCID=ec0ceb10
DTITLE=Charlie Palmieri Johnny Pacheco - Salsa y Charanga
DYEAR=1900
DGENRE=Salsa
TTITLE0=Yenguele Maria
TTITLE1=El platanal de bartolo
TTITLE2=Nunca pense
TTITLE3=Compae Cucu
TTITLE4=Coco Liso
TTITLE5=No Conocia el Amor
TTITLE6=Los Problemas de Atilina
TTITLE7=La Botija Y el Guiro
TTITLE8=Bilongo
TTITLE9=El Tubo
TTITLE10=Tal es La Vida
TTITLE11=Yo no Camino mas
TTITLE12=Yo soy Candela
TTITLE13=Soy Campesino
TTITLE14=Los Bomberos
TTITLE15=Ritmo Jala Jala
EXTD=
EXTT0=
EXTT1=
EXTT2=
EXTT3=
EXTT4=
EXTT5=
EXTT6=
EXTT7=
EXTT8=
EXTT9=
EXTT10=
EXTT11=
EXTT12=
EXTT13=
EXTT14=
EXTT15=
PLAYORDER=
